<?xml version="1.0" standalone="no"?>
<!DOCTYPE svg PUBLIC "-//W3C//DTD SVG 20010904//EN"
 "http://www.w3.org/TR/2001/REC-SVG-20010904/DTD/svg10.dtd">
<svg version="1.0" xmlns="http://www.w3.org/2000/svg"
 width="700.000000pt" height="700.000000pt" viewBox="0 0 700.000000 700.000000"
 preserveAspectRatio="xMidYMid meet">
<metadata>
Created by potrace 1.11, written by Peter Selinger 2001-2013
</metadata>
<g transform="translate(0.000000,700.000000) scale(0.100000,-0.100000)"
fill="#000000" stroke="none">
<path d="M4790 6553 c-298 -43 -663 -225 -1010 -502 -101 -81 -226 -189 -267
-230 -14 -13 -28 -5 -73 39 -17 17 -101 90 -135 117 -143 115 -195 154 -320
238 -274 183 -519 290 -746 325 -70 11 -235 9 -284 -3 -11 -3 -33 -8 -50 -13
-127 -31 -277 -156 -354 -294 -72 -130 -124 -323 -146 -542 -11 -103 -5 -388
9 -503 3 -22 10 -78 16 -125 5 -47 12 -94 14 -105 2 -11 7 -40 11 -65 8 -51 8
-48 29 -148 9 -40 16 -77 16 -81 0 -5 -62 -30 -137 -56 -722 -250 -1172 -589
-1278 -960 -24 -85 -22 -221 5 -308 113 -364 570 -702 1275 -943 77 -26 141
-48 142 -48 1 -1 -7 -44 -18 -96 -11 -52 -22 -108 -25 -125 -5 -34 -15 -91
-20 -117 -1 -9 -6 -48 -9 -85 -4 -37 -9 -70 -10 -73 -6 -10 -18 -237 -19 -335
0 -246 28 -439 90 -610 91 -252 261 -411 479 -450 90 -16 241 -11 330 10 39 9
77 18 85 20 70 17 262 94 339 137 162 90 240 139 361 226 112 82 321 252 370
302 28 28 52 43 58 34 4 -5 45 -43 92 -85 240 -211 473 -372 710 -490 110 -54
291 -122 355 -133 17 -3 55 -10 85 -16 59 -11 206 -14 255 -5 261 49 432 221
521 523 28 96 28 97 39 162 4 25 9 54 11 65 25 125 21 474 -7 690 -11 87 -13
99 -29 195 -19 110 -21 123 -36 185 -7 33 -14 63 -14 67 0 4 26 15 58 24 112
32 399 147 540 217 461 226 744 496 817 777 15 60 22 189 12 235 -15 67 -32
117 -58 169 -135 272 -469 531 -949 734 -102 43 -403 152 -421 152 -6 0 -8 8
-5 18 26 88 77 420 92 602 9 96 8 381 0 444 -3 22 -8 63 -11 91 -31 257 -148
506 -292 620 -68 53 -158 98 -230 115 -51 11 -215 20 -263 13z m219 -328 c27
-9 66 -31 88 -50 42 -36 99 -135 127 -221 17 -51 18 -58 35 -151 14 -73 25
-213 24 -313 0 -89 -13 -311 -18 -320 -2 -3 -6 -34 -10 -70 -4 -36 -8 -72 -10
-80 -1 -8 -6 -35 -10 -60 -4 -25 -9 -52 -10 -60 -21 -111 -29 -146 -35 -153
-4 -4 -29 -3 -56 3 -27 7 -57 13 -67 15 -10 2 -26 6 -35 9 -9 3 -30 8 -47 10
-16 3 -41 8 -55 11 -14 2 -38 7 -55 10 -16 3 -79 14 -140 24 -60 11 -126 22
-145 25 -50 7 -241 31 -282 35 -3 1 -29 32 -57 70 -65 87 -235 302 -265 335
-6 6 -38 43 -71 81 -77 89 -70 82 -138 153 l-58 61 43 39 c24 22 63 56 88 77
25 21 47 41 50 44 12 18 225 175 320 237 200 131 437 234 572 250 29 4 54 8
56 9 9 8 119 -6 161 -20z m-2805 5 c145 -23 365 -117 551 -236 86 -54 281
-197 336 -246 15 -13 61 -52 103 -88 42 -35 76 -67 76 -70 0 -3 -17 -24 -38
-46 -30 -34 -131 -146 -177 -198 -67 -76 -206 -249 -294 -368 -70 -94 -61 -89
-191 -103 -30 -4 -66 -8 -80 -10 -31 -4 -105 -15 -145 -21 -31 -5 -124 -21
-161 -28 -12 -2 -38 -7 -57 -10 -20 -3 -78 -15 -129 -27 -51 -11 -106 -23
-123 -26 -16 -3 -38 -9 -47 -14 -13 -7 -18 -3 -26 24 -13 40 -20 73 -28 123
-3 21 -10 57 -14 80 -5 22 -12 67 -16 100 -3 32 -7 61 -9 64 -17 28 -26 444
-12 580 25 250 113 444 225 497 64 31 157 39 256 23z m1452 -1035 c67 -76 224
-263 224 -268 0 -1 -171 -2 -380 -2 -209 0 -380 2 -380 4 0 4 140 179 161 201
8 8 29 33 48 55 19 22 64 73 100 112 l66 73 45 -48 c25 -26 77 -83 116 -127z
m239 -589 c201 -13 230 -17 241 -29 34 -37 262 -394 335 -524 12 -21 42 -74
67 -118 25 -44 85 -160 134 -257 l89 -177 -84 -168 c-113 -227 -175 -339 -307
-558 -112 -187 -231 -365 -244 -366 -6 0 -20 -2 -31 -4 -151 -30 -1204 -24
-1230 7 -14 16 -227 346 -261 403 -104 176 -201 353 -275 500 l-91 181 101
199 c105 209 119 235 233 430 61 104 246 398 282 446 12 18 62 24 276 35 63 3
116 7 117 8 5 4 560 -2 648 -8z m-1467 -114 c-18 -25 -35 -51 -38 -57 -3 -5
-37 -64 -76 -130 -85 -142 -92 -155 -174 -309 l-63 -119 -30 74 c-16 41 -60
164 -97 274 -54 160 -65 202 -54 208 23 13 472 102 532 105 l33 1 -33 -47z
m2252 29 c198 -34 412 -79 422 -89 15 -15 -166 -547 -182 -537 -5 3 -36 58
-70 122 -61 114 -200 352 -274 466 -21 34 -31 57 -24 57 7 0 65 -9 128 -19z
m-3045 -348 c32 -98 61 -182 66 -188 5 -5 9 -15 9 -23 0 -12 92 -251 130 -337
60 -136 58 -130 43 -158 -60 -116 -292 -752 -293 -804 0 -7 -2 -13 -4 -13 -10
0 -172 53 -201 65 -16 7 -79 32 -140 56 -140 55 -345 159 -456 231 -311 203
-448 399 -400 574 50 184 354 433 734 600 45 19 96 42 112 49 33 15 185 71
280 103 33 11 61 21 62 21 0 1 27 -79 58 -176z m3895 138 c194 -66 249 -88
435 -178 210 -101 370 -208 492 -331 212 -213 217 -378 17 -588 -188 -197
-512 -378 -939 -525 -60 -21 -113 -35 -116 -31 -3 4 -20 54 -38 112 -56 183
-186 527 -259 688 l-19 43 49 117 c27 64 53 126 58 137 22 49 113 303 157 443
26 83 48 152 48 152 1 0 52 -18 115 -39z m-549 -1336 c18 -40 129 -381 129
-396 0 -11 -12 -18 -32 -22 -18 -3 -85 -17 -148 -31 -63 -14 -131 -28 -150
-31 -19 -3 -60 -10 -90 -15 -30 -5 -77 -12 -103 -16 l-48 -6 44 69 c61 93 212
355 282 487 l58 109 24 -64 c14 -35 29 -73 34 -84z m-2851 40 c71 -132 158
-282 246 -423 l83 -133 -47 5 c-26 4 -63 9 -82 12 -67 11 -434 85 -438 89 -5
4 32 126 83 275 70 203 97 272 105 263 5 -4 27 -44 50 -88z m-265 -765 c128
-32 354 -76 490 -95 22 -4 68 -11 103 -16 34 -5 84 -12 110 -15 26 -3 58 -7
72 -9 14 -2 32 -4 41 -4 8 -1 40 -34 70 -73 65 -88 276 -349 319 -398 17 -19
43 -48 58 -65 14 -16 54 -60 89 -98 72 -77 77 -59 -42 -163 -107 -92 -211
-174 -310 -242 -135 -93 -158 -108 -258 -161 -254 -135 -466 -184 -611 -141
-202 61 -306 414 -273 925 4 55 9 111 11 125 3 14 7 50 10 80 9 79 46 282 63
343 5 20 5 20 58 7z m3342 -42 c6 -26 14 -62 16 -80 3 -18 10 -58 16 -88 7
-30 14 -79 17 -109 3 -30 7 -57 9 -60 9 -16 20 -205 20 -356 0 -273 -23 -407
-95 -560 -70 -147 -151 -197 -307 -190 -105 4 -124 8 -228 41 -100 32 -243 99
-352 165 -75 45 -280 184 -293 199 -3 3 -28 23 -56 45 -28 22 -77 63 -110 92
-32 28 -72 63 -89 77 l-29 25 24 28 c14 15 27 30 30 33 84 85 305 350 427 512
105 139 93 131 228 144 39 3 72 8 75 9 3 2 33 7 65 10 33 4 69 9 80 12 11 2
38 6 60 9 42 5 354 68 415 83 55 14 64 10 77 -41z m-1327 -137 c0 -15 -212
-263 -347 -407 l-32 -34 -85 93 c-89 97 -271 311 -286 337 -7 13 37 15 371 15
208 0 379 -2 379 -4z"/>
<path d="M3365 4124 c-214 -42 -399 -210 -476 -431 -25 -71 -35 -227 -20 -305
43 -233 203 -415 438 -500 85 -30 259 -33 356 -7 146 41 294 149 376 278 119
186 129 452 24 641 -88 159 -225 268 -398 317 -71 20 -217 23 -300 7z"/>
</g>
</svg>
