<?xml version="1.0" encoding="UTF-8"?>
<!DOCTYPE svg PUBLIC "-//W3C//DTD SVG 1.1//EN" "http://www.w3.org/Graphics/SVG/1.1/DTD/svg11.dtd">
<!-- Creator: CorelDRAW 2018 (64 Bit Versão de avaliação) -->
<svg xmlns="http://www.w3.org/2000/svg" xml:space="preserve" width="647px" height="647px" version="1.1" style="shape-rendering:geometricPrecision; text-rendering:geometricPrecision; image-rendering:optimizeQuality; fill-rule:evenodd; clip-rule:evenodd"
viewBox="0 0 647 647"
 >
 <defs>
  <style type="text/css">
   <![CDATA[
    .fil4 {fill:none}
    .fil1 {fill:#455A64}
    .fil2 {fill:#6E8894}
    .fil3 {fill:#A1B4BD}
    .fil0 {fill:#ECEFF1}
   ]]>
  </style>
   <clipPath id="id0">
    <path d="M647 647.02l-647 0 0 -647.04 647 0 0 647.04z"/>
   </clipPath>
 </defs>
 <g id="Camada_x0020_1">
  <metadata id="CorelCorpID_0Corel-Layer"/>
  <g id="_1586301238608">
  </g>
  <g id="_1586301239152">
  </g>
  <g id="_1586301238352">
  </g>
  <g id="_1586301237552">
  </g>
  <g id="_1586301237008">
  </g>
  <g id="_1586301236048">
  </g>
  <g id="_1586301235632">
  </g>
  <g id="_1586301235600">
  </g>
  <g id="_1586301234416">
  </g>
  <g id="_1586301234544">
  </g>
  <g id="_1586301233936">
  </g>
  <g id="_1586301233712">
  </g>
  <g id="_1586301232208">
  </g>
  <g id="_1586301231984">
  </g>
  <g id="_1586301233488">
  </g>
  <polygon class="fil0" points="647,647.02 0,647.02 0,-0.02 647,-0.02 "/>
  <g style="clip-path:url(#id0)">
   <g id="_1586301230448">
    <g>
     <path id="1" class="fil1" d="M495.35 498.29l-81.88 -16.33c-5.64,-1.11 -10.28,-4.72 -12.85,-9.52l0 59.92 -158.25 0 0 -54.8c-2.43,2.18 -5.44,3.75 -8.8,4.43l-81.92 16.34c-52.36,10.46 -90.34,56.7 -90.34,109.97l0 35.51c0,20.63 16.82,37.37 37.46,37.37l449.46 0c20.68,0 37.46,-16.74 37.46,-37.37l0 -35.51c0,-53.27 -38.02,-99.51 -90.34,-110.01z"/>
     <rect class="fil2" x="241.87" y="424.21" width="158.75" height="108.15"/>
     <path class="fil3" d="M457.88 242.84c0,-6.75 -1.37,-13.17 -3.84,-19.03 -9.31,-22.04 -35.39,-31.03 -57.89,-22.89 -12.26,4.43 -35.2,9.36 -76.64,9.36 -41.44,0 -64.39,-4.93 -76.65,-9.36 -22.5,-8.14 -48.58,0.85 -57.89,22.89 -2.47,5.85 -3.83,12.28 -3.83,19.03l-0.22 74.17c0,51.11 3.98,107.33 42.52,143.92 13.83,13.13 30.12,23.24 45.85,33.91 15.74,10.67 29.61,24.74 50,24.74 20.39,0 34.25,-14.07 49.98,-24.74 15.73,-10.67 32.02,-20.78 45.85,-33.91 38.55,-36.59 42.76,-93.74 42.76,-144.84l0 -73.25 0 0z"/>
     <path class="fil1" d="M181.04 275.4l0.1 -32.56c0,-6.75 1.37,-13.18 3.83,-19.03 9.32,-22.04 35.39,-31.03 57.9,-22.89 12.26,4.43 35.2,9.36 76.64,9.36 41.44,0 64.38,-4.93 76.64,-9.36 22.49,-8.14 48.58,0.85 57.89,22.89 2.47,5.85 3.84,12.28 3.84,19.03l0 48.35c21.29,-43.78 25.75,-75.44 23.88,-97.28 -1.7,-19.72 -15.12,-36.58 -33.65,-43.52 -21.32,-8 -23.01,-29.64 -23.01,-29.64 0,-13.23 40.69,-16.28 40.69,-16.28 -42.35,-42.35 -146.51,-40.7 -146.51,-40.7 0,0 -112.42,-4.07 -146.51,73.25 0,0 -22.38,39.94 8.14,138.37l0.13 0.01z"/>
    </g>
   </g>
  </g>
  <polygon class="fil4" points="647,647.02 0,647.02 0,-0.02 647,-0.02 "/>
  <g id="_1586301230800">
  </g>
  <g id="_1586301230480">
  </g>
  <g id="_1586301229232">
  </g>
  <g id="_1586301227952">
  </g>
  <g id="_1586301228592">
  </g>
  <g id="_1586301229072">
  </g>
  <g id="_1586301225648">
  </g>
  <g id="_1586301226512">
  </g>
  <g id="_1586301226704">
  </g>
  <g id="_1586301226480">
  </g>
  <g id="_1586301227216">
  </g>
  <g id="_1586301224944">
  </g>
  <g id="_1586301223728">
  </g>
  <g id="_1586301223888">
  </g>
  <g id="_1586301223696">
  </g>
  <g id="_1586301221584">
  </g>
  <g id="_1586301223184">
  </g>
  <g id="_1586301222480">
  </g>
  <g id="_1586301221776">
  </g>
  <g id="_1586301221488">
  </g>
  <g id="_1586301220624">
  </g>
  <g id="_1586301219696">
  </g>
  <g id="_1586301220560">
  </g>
  <g id="_1586301220016">
  </g>
  <g id="_1586301218416">
  </g>
  <g id="_1586301218288">
  </g>
  <g id="_1586301218800">
  </g>
  <g id="_1586301218704">
  </g>
  <g id="_1586301219184">
  </g>
  <g id="_1586301215824">
  </g>
 </g>
</svg>
